<?xml version="1.0" encoding="UTF-8"?>
<svg width="79px" height="79px" viewBox="0 0 79 79" version="1.1" xmlns="http://www.w3.org/2000/svg" xmlns:xlink="http://www.w3.org/1999/xlink">
    <!-- Generator: Sketch 51.3 (57544) - http://www.bohemiancoding.com/sketch -->
    <title>facebook_Color</title>
    <desc>Created with Sketch.</desc>
    <defs></defs>
    <g id="Page-1" stroke="none" stroke-width="1" fill="none" fill-rule="evenodd">
        <g id="facebook">
            <path d="M0,39.5 C0,17.6847513 17.6847513,0 39.5,0 C61.3152487,0 79,17.6847513 79,39.5 C79,61.3152487 61.3152487,79 39.5,79 C17.6847513,79 0,61.3152487 0,39.5 Z" id="back" fill="#3B5998"></path>
            <path d="M42.3004761,61.4084721 L42.3004761,39.9183867 L48.2326795,39.9183867 L49.0188246,32.5127842 L42.3004761,32.5127842 L42.3105549,28.8062089 C42.3105549,26.8747137 42.4940727,25.8397745 45.2682576,25.8397745 L48.9768297,25.8397745 L48.9768297,18.4333333 L43.0437863,18.4333333 C35.9172471,18.4333333 33.4088901,22.0258473 33.4088901,28.067326 L33.4088901,32.5136229 L28.9666667,32.5136229 L28.9666667,39.9192253 L33.4088901,39.9192253 L33.4088901,61.4084721 L42.3004761,61.4084721 Z" id="Shape" fill="#FFFFFF"></path>
        </g>
    </g>
</svg>