<?xml version="1.0" encoding="UTF-8"?>
<svg width="78px" height="78px" viewBox="0 0 78 78" version="1.1" xmlns="http://www.w3.org/2000/svg" xmlns:xlink="http://www.w3.org/1999/xlink">
    <!-- Generator: Sketch 51.3 (57544) - http://www.bohemiancoding.com/sketch -->
    <title>gplus_Color</title>
    <desc>Created with Sketch.</desc>
    <defs></defs>
    <g id="Page-1" stroke="none" stroke-width="1" fill="none" fill-rule="evenodd">
        <g id="gplus">
            <path d="M0,38.852459 C0,17.3948373 17.4199744,0 38.9086042,0 C60.397234,0 77.8172084,17.3948373 77.8172084,38.852459 C77.8172084,60.3100807 60.397234,77.704918 38.9086042,77.704918 C17.4199744,77.704918 0,60.3100807 0,38.852459 Z" id="back" fill="#DC4E41"></path>
            <path d="M31.7883756,37.7423888 L31.7883756,41.9606557 L38.7994784,41.9606557 C38.5169151,43.7709953 36.6802534,47.2686417 31.7883756,47.2686417 C27.5675857,47.2686417 24.123845,43.7885714 24.123845,39.5 C24.123845,35.2114286 27.5675857,31.7313583 31.7883756,31.7313583 C34.1901639,31.7313583 35.7972429,32.7507728 36.7155738,33.6295785 L40.0710134,30.4131499 C37.916468,28.4094731 35.126155,27.1967213 31.7883756,27.1967213 C24.9538748,27.1967213 19.4262295,32.6980445 19.4262295,39.5 C19.4262295,46.3019555 24.9538748,51.8032787 31.7883756,51.8032787 C38.9230999,51.8032787 43.6560358,46.8116628 43.6560358,39.7812178 C43.6560358,38.9727166 43.5677347,38.3575527 43.4617735,37.7423888 L31.7883756,37.7423888 L31.7883756,37.7423888 Z" id="Shape" fill="#FFFFFF"></path>
            <polyline id="Shape-Copy" fill="#FFFFFF" points="58.2786885 37.7423888 54.7466468 37.7423888 54.7466468 34.2271663 51.2146051 34.2271663 51.2146051 37.7423888 47.6825633 37.7423888 47.6825633 41.2576112 51.2146051 41.2576112 51.2146051 44.7728337 54.7466468 44.7728337 54.7466468 41.2576112 58.2786885 41.2576112"></polyline>
        </g>
    </g>
</svg>