<?xml version="1.0" encoding="UTF-8"?>
<svg width="79px" height="79px" viewBox="0 0 79 79" version="1.1" xmlns="http://www.w3.org/2000/svg" xmlns:xlink="http://www.w3.org/1999/xlink">
    <!-- Generator: Sketch 51.3 (57544) - http://www.bohemiancoding.com/sketch -->
    <title>instagram</title>
    <desc>Created with Sketch.</desc>
    <defs></defs>
    <g id="Page-1" stroke="none" stroke-width="1" fill="none" fill-rule="evenodd">
        <g id="instagram">
            <path d="M39.466,78.931 C17.705,78.931 0,61.227 0,39.466 C0,17.704 17.705,0 39.466,0 C61.228,0 78.932,17.704 78.932,39.466 C78.932,61.227 61.228,78.931 39.466,78.931 L39.466,78.931 Z" id="Instagram-Circle" fill="#2A5B83"></path>
            <path d="M54.396,21.036 L26.449,21.036 C24.042,21.036 22.091,22.982 22.091,25.384 L22.091,53.351 C22.091,55.752 24.042,57.699 26.449,57.699 L54.396,57.699 C56.803,57.699 58.754,55.752 58.754,53.351 L58.754,25.384 C58.754,22.982 56.803,21.036 54.396,21.036 L54.396,21.036 Z M48.443,26.764 C48.443,26.132 48.956,25.618 49.588,25.618 L53.025,25.618 C53.658,25.618 54.171,26.132 54.171,26.764 L54.171,30.201 C54.171,30.834 53.658,31.347 53.025,31.347 L49.588,31.347 C48.956,31.347 48.443,30.834 48.443,30.201 L48.443,26.764 L48.443,26.764 Z M40.465,32.376 C44.359,32.376 47.516,35.526 47.516,39.409 C47.516,43.295 44.359,46.444 40.465,46.444 C36.572,46.444 33.415,43.295 33.415,39.409 C33.415,35.526 36.572,32.376 40.465,32.376 L40.465,32.376 Z M55.317,53.116 C55.317,53.748 54.804,54.262 54.171,54.262 L26.674,54.262 C26.041,54.262 25.528,53.748 25.528,53.116 L25.528,35.93 L30.111,35.93 C29.514,36.789 29.312,38.392 29.312,39.409 C29.312,45.545 34.316,50.537 40.465,50.537 C46.615,50.537 51.619,45.545 51.619,39.409 C51.619,38.392 51.474,36.813 50.734,35.93 L55.317,35.93 L55.317,53.116 L55.317,53.116 Z" id="Instagram" fill="#FFFFFF"></path>
        </g>
    </g>
</svg>