<?xml version="1.0" encoding="UTF-8"?>
<svg width="79px" height="79px" viewBox="0 0 79 79" version="1.1" xmlns="http://www.w3.org/2000/svg" xmlns:xlink="http://www.w3.org/1999/xlink">
    <!-- Generator: Sketch 51.3 (57544) - http://www.bohemiancoding.com/sketch -->
    <title>LinkedIN_Color</title>
    <desc>Created with Sketch.</desc>
    <defs></defs>
    <g id="Page-1" stroke="none" stroke-width="1" fill="none" fill-rule="evenodd">
        <g id="LinkedIN">
            <path d="M0,39.5 C0,17.6847513 17.6847513,0 39.5,0 C61.3152487,0 79,17.6847513 79,39.5 C79,61.3152487 61.3152487,79 39.5,79 C17.6847513,79 0,61.3152487 0,39.5 Z" id="back" fill="#0077B5"></path>
            <path d="M27.9142253,32.7156253 L27.9142253,59.6113588 L18.9626615,59.6113588 L18.9626615,32.7156253 L27.9142253,32.7156253 Z M28.5037979,24.39569 C28.5037979,26.9781759 26.5598888,29.0445931 23.4386222,29.0445931 L23.3814169,29.0445931 C20.3761698,29.0445931 18.4333333,26.9781759 18.4333333,24.39569 C18.4333333,21.7585803 20.4353416,19.75 23.4976152,19.75 C26.5598888,19.75 28.4456987,21.7585803 28.5037979,24.39569 Z M60.1969888,44.1901672 L60.1966313,59.6113588 L51.245425,59.6113588 L51.245425,45.2221262 C51.245425,41.6078597 49.9500815,39.141583 46.7095775,39.141583 C44.236519,39.141583 42.7634813,40.8042134 42.1165247,42.410078 C41.8798375,42.9855902 41.8217384,43.7874515 41.8217384,44.5912763 L41.8217384,59.6120728 L32.869102,59.6120728 C32.869102,59.6120728 32.987088,35.240096 32.869102,32.7163394 L41.8217384,32.7163394 L41.8217384,36.5258944 C43.0098219,34.6945732 45.1376819,32.0840614 49.8903734,32.0840614 C55.780915,32.0840614 60.1969888,35.9289612 60.1969888,44.1901672 Z" id="Shape" fill="#FFFFFF"></path>
        </g>
    </g>
</svg>