<?xml version="1.0" encoding="UTF-8"?>
<svg width="258px" height="109px" viewBox="0 0 258 109" version="1.1" xmlns="http://www.w3.org/2000/svg" xmlns:xlink="http://www.w3.org/1999/xlink">
    <!-- Generator: Sketch 51.3 (57544) - http://www.bohemiancoding.com/sketch -->
    <title>Logo</title>
    <desc>Created with Sketch.</desc>
    <defs></defs>
    <g id="Page-1" stroke="none" stroke-width="1" fill="none" fill-rule="evenodd">
        <g id="XLAB-iPad" transform="translate(-59.000000, -46.000000)">
            <g id="Logo" transform="translate(50.000000, 40.000000)">
                <g id="logo">
                    <text id="xlab" font-family="Futura-Medium, Futura" font-size="62.4" font-weight="400">
                        <tspan x="58.5476562" y="91.8" fill="#FA9740"> </tspan>
                        <tspan x="77.8039062" y="91.8" fill="#D84483">x</tspan>
                        <tspan x="112.629688" y="91.8" fill="#000000">lab</tspan>
                    </text>
                    <text id="tech" font-family="HelveticaNeue-Light, Helvetica Neue" font-size="28.8" font-weight="300" fill="#D84483">
                        <tspan x="204.1152" y="93.2">tech</tspan>
                    </text>
                    <path d="M60.6911535,20.8048497 L60.6911535,35.0453944 C74.1719156,38.9512211 84.0197858,51.3027172 84.0197858,65.9355598 C84.0197858,83.7064073 69.4952855,98.1125257 51.5784065,98.1125257 C33.6615274,98.1125257 19.1370272,83.7064073 19.1370272,65.9355598 C19.1370272,51.3027172 28.9848973,38.9512211 42.4656595,35.0453944 L42.4656595,20.8048497 L37.1754619,20.8048497 C36.0708924,20.8048497 35.1754619,19.9094192 35.1754619,18.8048497 L35.1754619,10.5125257 C35.1754619,9.40795617 36.0708924,8.51252567 37.1754619,8.51252567 L65.9813511,8.51252567 C67.0859206,8.51252567 67.9813511,9.40795617 67.9813511,10.5125257 L67.9813511,18.8048497 C67.9813511,19.9094192 67.0859206,20.8048497 65.9813511,20.8048497 L60.6911535,20.8048497 Z" id="Combined-Shape" stroke="#000000" stroke-width="4" transform="translate(51.578406, 53.312526) rotate(36.000000) translate(-51.578406, -53.312526) "></path>
                    <polygon id="Star" fill="#D84483" fill-rule="evenodd" transform="translate(44.019310, 68.610539) rotate(3.000000) translate(-44.019310, -68.610539) " points="44.0193098 87.2115748 42.5584289 88.6105388 41.3166709 87.0136351 39.6678032 88.1848429 38.6716341 86.4240347 36.8699223 87.342524 36.1405737 85.4553399 34.2244182 86.1015347 33.7774349 84.1281967 31.7876752 84.4883245 31.6325839 82.4708909 29.6116282 82.5372762 29.7517344 80.5187451 27.742656 80.289973 28.1749735 78.3133659 26.2205924 77.7943123 26.9359072 75.9017571 25.0778775 75.1034848 26.0609439 73.335318 24.3388664 72.2748407 25.568732 70.6687478 24.0193098 69.3686677 25.4697621 67.9588798 24.1260185 66.4469059 25.7661437 65.2634701 24.6567181 63.5718274 26.4515598 62.6399666 25.6000977 60.8047097 27.5114019 60.1442849 26.9360509 58.2045291 28.9230815 57.8296161 28.6361041 55.8267038 30.656511 55.7452932 30.6640236 53.721913 32.6747453 53.93574 32.9765878 51.9350169 34.9347693 52.4395241 35.5245085 50.5040998 37.3884146 51.2885345 38.2534812 49.4596595 39.9833858 50.5073028 41.1053424 48.8239561 42.6643758 50.1124795 44.0193098 48.6105388 45.3742438 50.1124795 46.9332772 48.8239561 48.0552338 50.5073028 49.7851385 49.4596595 50.6502051 51.2885345 52.5141111 50.5040998 53.1038503 52.4395241 55.0620318 51.9350169 55.3638743 53.93574 57.374596 53.721913 57.3821087 55.7452932 59.4025155 55.8267038 59.1155381 57.8296161 61.1025687 58.2045291 60.5272177 60.1442849 62.4385219 60.8047097 61.5870599 62.6399666 63.3819015 63.5718274 62.272476 65.2634701 63.9126012 66.4469059 62.5688575 67.9588798 64.0193098 69.3686677 62.4698877 70.6687478 63.6997532 72.2748407 61.9776758 73.335318 62.9607421 75.1034848 61.1027125 75.9017571 61.8180272 77.7943123 59.8636461 78.3133659 60.2959636 80.289973 58.2868852 80.5187451 58.4269914 82.5372762 56.4060358 82.4708909 56.2509445 84.4883245 54.2611847 84.1281967 53.8142015 86.1015347 51.8980459 85.4553399 51.1686973 87.342524 49.3669855 86.4240347 48.3708164 88.1848429 46.7219487 87.0136351 45.4801907 88.6105388"></polygon>
                    <path d="M42.0480147,57.7608927 L30.5189647,57.7608927 C28.5617547,52.4776132 30.5714741,47.1442799 36.5481229,41.7608927 C36.460563,47.6615894 38.2938602,52.9949227 42.0480147,57.7608927 Z" id="Combined-Shape" fill="#D84483" fill-rule="evenodd" transform="translate(35.921370, 49.760893) rotate(3.000000) translate(-35.921370, -49.760893) "></path>
                    <path d="M61.4995813,58.7803061 L49.9705313,58.7803061 C48.0133213,53.4970267 50.0230407,48.1636933 55.9996895,42.7803061 C55.9121295,48.6810028 57.7454268,54.0143361 61.4995813,58.7803061 Z" id="Combined-Shape" fill="#D84483" fill-rule="evenodd" transform="translate(55.372937, 50.780306) scale(-1, 1) rotate(3.000000) translate(-55.372937, -50.780306) "></path>
                    <circle id="Oval-2" fill="#FFFFFF" fill-rule="evenodd" transform="translate(44.776345, 69.451311) rotate(-87.000000) translate(-44.776345, -69.451311) " cx="44.7763447" cy="69.4513112" r="8"></circle>
                    <circle id="Oval-4" fill="#000000" fill-rule="evenodd" transform="translate(44.776345, 69.451311) rotate(-87.000000) translate(-44.776345, -69.451311) " cx="44.7763447" cy="69.4513112" r="5.33333333"></circle>
                    <circle id="Oval-4" fill="#FFFFFF" fill-rule="evenodd" transform="translate(41.482470, 68.611105) rotate(-87.000000) translate(-41.482470, -68.611105) " cx="41.4824702" cy="68.611105" r="2"></circle>
                    <circle id="Oval-4" fill="#FFFFFF" fill-rule="evenodd" transform="translate(47.578919, 66.927862) rotate(-87.000000) translate(-47.578919, -66.927862) " cx="47.5789193" cy="66.9278617" r="1.33333333"></circle>
                    <path d="M93.4,30 C95.2640955,31.4152739 95.7301194,34.2700611 94.7980716,38.5643617 C94.2804411,43.3252074 95.3899845,45.7251782 98.1267019,45.7642742 C102.231778,45.8229181 103.455482,33.7016058 93.4,30" id="Path-10" fill="#D84483" fill-rule="evenodd"></path>
                    <ellipse id="Oval-5" fill="#D84483" fill-rule="evenodd" cx="83" cy="93.2" rx="15.2" ry="2.4"></ellipse>
                    <ellipse id="Oval-5" fill="#D84483" fill-rule="evenodd" cx="261.4" cy="94.8" rx="4.8" ry="1"></ellipse>
                </g>
                <text id="a-BCN-techgroup" font-family="LucidaGrande, Lucida Grande" font-size="14.9444195" font-weight="normal" letter-spacing="-0.089650297" fill="#000000">
                    <tspan x="68" y="111">a BCN techgroup</tspan>
                </text>
            </g>
        </g>
    </g>
</svg>