<?xml version="1.0" encoding="UTF-8"?>
<svg width="79px" height="79px" viewBox="0 0 79 79" version="1.1" xmlns="http://www.w3.org/2000/svg" xmlns:xlink="http://www.w3.org/1999/xlink">
    <!-- Generator: Sketch 51.3 (57544) - http://www.bohemiancoding.com/sketch -->
    <title>twitter</title>
    <desc>Created with Sketch.</desc>
    <defs></defs>
    <g id="Page-1" stroke="none" stroke-width="1" fill="none" fill-rule="evenodd">
        <g id="twitter">
            <path d="M39.466,78.931 C17.705,78.931 0,61.227 0,39.466 C0,17.704 17.705,0 39.466,0 C61.228,0 78.932,17.704 78.932,39.466 C78.932,61.227 61.228,78.931 39.466,78.931 L39.466,78.931 Z" id="Twitter-Circle" fill="#24A9E6"></path>
            <path d="M56.42,24.577 C54.934,25.479 53.292,26.135 51.537,26.486 C50.139,24.956 48.141,24 45.929,24 C41.689,24 38.248,27.528 38.248,31.879 C38.248,32.496 38.314,33.096 38.446,33.673 C32.06,33.344 26.399,30.211 22.607,25.438 C21.945,26.606 21.567,27.961 21.567,29.403 C21.567,32.136 22.923,34.548 24.986,35.961 C23.728,35.923 22.541,35.565 21.503,34.978 L21.503,35.075 C21.503,38.894 24.152,42.08 27.67,42.801 C27.026,42.986 26.346,43.078 25.645,43.078 C25.15,43.078 24.667,43.031 24.199,42.939 C25.177,46.068 28.013,48.347 31.376,48.407 C28.747,50.522 25.432,51.782 21.833,51.782 C21.213,51.782 20.6,51.746 20,51.674 C23.4,53.906 27.441,55.211 31.779,55.211 C45.914,55.211 53.641,43.207 53.641,32.794 C53.641,32.451 53.635,32.109 53.622,31.773 C55.123,30.661 56.427,29.275 57.453,27.695 C56.077,28.321 54.595,28.745 53.041,28.935 C54.628,27.961 55.846,26.416 56.42,24.577" id="Twitter" fill="#FFFFFF"></path>
        </g>
    </g>
</svg>