<?xml version="1.0" encoding="UTF-8"?>
<svg width="79px" height="79px" viewBox="0 0 79 79" version="1.1" xmlns="http://www.w3.org/2000/svg" xmlns:xlink="http://www.w3.org/1999/xlink">
    <!-- Generator: Sketch 51.3 (57544) - http://www.bohemiancoding.com/sketch -->
    <title>website</title>
    <desc>Created with Sketch.</desc>
    <defs></defs>
    <g id="Page-1" stroke="none" stroke-width="1" fill="none" fill-rule="evenodd">
        <g id="website">
            <path d="M39.466,78.931 C17.705,78.931 0,61.227 0,39.466 C0,17.704 17.705,0 39.466,0 C61.228,0 78.932,17.704 78.932,39.466 C78.932,61.227 61.228,78.931 39.466,78.931 L39.466,78.931 Z" id="Twitter-Circle" fill="#E9E9E9"></path>
            <g id="Group" transform="translate(4.000000, 4.000000)">
                <path d="M41.5393258,16.0942759 L41.5393258,25.4714203 C50.4734831,28.0433374 57,36.176577 57,45.8120425 C57,57.5138283 47.3741221,67 35.5,67 C23.6258779,67 14,57.5138283 14,45.8120425 C14,36.176577 20.5265169,28.0433374 29.4606742,25.4714203 L29.4606742,16.0942759 L26.6292135,16.0942759 C25.524644,16.0942759 24.6292135,15.1988454 24.6292135,14.0942759 L24.6292135,10 C24.6292135,8.8954305 25.524644,8 26.6292135,8 L44.3707865,8 C45.475356,8 46.3707865,8.8954305 46.3707865,10 L46.3707865,14.0942759 C46.3707865,15.1988454 45.475356,16.0942759 44.3707865,16.0942759 L41.5393258,16.0942759 Z" id="Combined-Shape" stroke="#000000" stroke-width="4" transform="translate(35.500000, 37.500000) rotate(36.000000) translate(-35.500000, -37.500000) "></path>
                <polygon id="Star" fill="#D84483" transform="translate(30.500000, 47.500000) rotate(3.000000) translate(-30.500000, -47.500000) " points="30.5 60.0556993 29.5139054 61 28.6757188 59.92209 27.562733 60.7126552 26.8903189 59.5241097 25.6741634 60.14409 25.1818531 58.8702407 23.8884481 59.3064222 23.5867344 57.974419 22.2436466 58.2175053 22.13896 56.8557376 20.7748149 56.9005477 20.8693866 55.5380392 19.5132587 55.3836181 19.805073 54.0494083 18.4858657 53.6990471 18.9687032 52.4215723 17.7145332 51.8827385 18.378103 50.689226 17.2157007 49.9734037 18.04586 48.8892911 17 48.011737 17.9790553 47.0601301 17.0720283 46.0395477 18.1791128 45.2407286 17.4302506 44.0988698 18.6417687 43.4698638 18.0670318 42.2310653 19.3571622 41.7852786 18.9688002 40.4759434 20.3100459 40.2228771 20.1163361 38.8709113 21.4801108 38.8159592 21.4851818 37.4501776 22.842419 37.5945108 23.0461627 36.2440227 24.3679352 36.584565 24.7660091 35.2781537 26.0241457 35.8076471 26.6080656 34.5731564 27.7757513 35.2803157 28.533072 34.1440567 29.5854195 35.0138099 30.5 34 31.4145805 35.0138099 32.466928 34.1440567 33.2242487 35.2803157 34.3919344 34.5731564 34.9758543 35.8076471 36.2339909 35.2781537 36.6320648 36.584565 37.9538373 36.2440227 38.157581 37.5945108 39.5148182 37.4501776 39.5198892 38.8159592 40.8836639 38.8709113 40.6899541 40.2228771 42.0311998 40.4759434 41.6428378 41.7852786 42.9329682 42.2310653 42.3582313 43.4698638 43.5697494 44.0988698 42.8208872 45.2407286 43.9279717 46.0395477 43.0209447 47.0601301 44 48.011737 42.95414 48.8892911 43.7842993 49.9734037 42.621897 50.689226 43.2854668 51.8827385 42.0312968 52.4215723 42.5141343 53.6990471 41.194927 54.0494083 41.4867413 55.3836181 40.1306134 55.5380392 40.2251851 56.9005477 38.86104 56.8557376 38.7563534 58.2175053 37.4132656 57.974419 37.1115519 59.3064222 35.8181469 58.8702407 35.3258366 60.14409 34.1096811 59.5241097 33.437267 60.7126552 32.3242812 59.92209 31.4860946 61"></polygon>
                <path d="M30,41 L22.4728452,41 C21.1950103,37.3677454 22.5071278,33.7010787 26.4091979,30 C26.3520312,34.056729 27.5489653,37.7233957 30,41 Z" id="Combined-Shape" fill="#D84483" transform="translate(26.000000, 35.500000) rotate(3.000000) translate(-26.000000, -35.500000) "></path>
                <path d="M42,42 L34.4728452,42 C33.1950103,38.3677454 34.5071278,34.7010787 38.4091979,31 C38.3520312,35.056729 39.5489653,38.7233957 42,42 Z" id="Combined-Shape" fill="#D84483" transform="translate(38.000000, 36.500000) scale(-1, 1) rotate(3.000000) translate(-38.000000, -36.500000) "></path>
                <circle id="Oval-2" fill="#FFFFFF" transform="translate(31.500000, 48.500000) rotate(-87.000000) translate(-31.500000, -48.500000) " cx="31.5" cy="48.5" r="5.5"></circle>
                <circle id="Oval-4" fill="#000000" transform="translate(31.000000, 47.000000) rotate(-87.000000) translate(-31.000000, -47.000000) " cx="31" cy="47" r="3"></circle>
                <circle id="Oval-4" fill="#FFFFFF" transform="translate(29.000000, 47.000000) rotate(-87.000000) translate(-29.000000, -47.000000) " cx="29" cy="47" r="1"></circle>
                <circle id="Oval-4" fill="#FFFFFF" transform="translate(33.000000, 46.000000) rotate(-87.000000) translate(-33.000000, -46.000000) " cx="33" cy="46" r="1"></circle>
                <path d="M63,23 C64.2015717,23.8977609 64.5019647,25.7086586 63.9011788,28.4326932 C63.5675209,31.4526747 64.2827182,32.9750655 66.0467706,32.9998655 C68.6928494,33.0370655 69.4816328,25.3480662 63,23" id="Path-10" fill="#D84483"></path>
            </g>
        </g>
    </g>
</svg>